<?xml version="1.0" encoding="iso-8859-1"?>
<!-- Generator: Adobe Illustrator 19.0.0, SVG Export Plug-In . SVG Version: 6.00 Build 0)  -->
<svg version="1.1" id="Capa_1" xmlns="http://www.w3.org/2000/svg" xmlns:xlink="http://www.w3.org/1999/xlink" x="0px" y="0px"
	 viewBox="0 0 512 512" style="enable-background:new 0 0 512 512;" xml:space="preserve">
<g>
	<g>
		<path d="M324.267,0C220.749,0,136.533,84.215,136.533,187.733s84.215,187.733,187.733,187.733S512,291.251,512,187.733
			S427.785,0,324.267,0z M324.267,358.4c-94.106,0-170.667-76.561-170.667-170.667S230.161,17.067,324.267,17.067
			s170.667,76.561,170.667,170.667S418.372,358.4,324.267,358.4z"/>
	</g>
</g>
<g>
	<g>
		<path d="M202.3,360.9l-51.2-51.2c-3.337-3.336-8.73-3.336-12.066,0L13.073,435.661C4.642,444.117,0,455.356,0,467.285
			C0,491.938,20.062,512,44.715,512c11.938,0,23.168-4.642,31.633-13.082L202.3,372.966C205.636,369.63,205.636,364.237,202.3,360.9
			z M64.29,486.844c-5.24,5.214-12.194,8.09-19.576,8.09c-15.241,0-27.648-12.399-27.648-27.648c0-7.39,2.876-14.345,8.081-19.567
			l119.919-119.919l39.134,39.134L64.29,486.844z"/>
	</g>
</g>
<g>
	<g>
		
			<rect x="172.115" y="332.807" transform="matrix(0.7071 -0.7071 0.7071 0.7071 -183.8829 238.747)" width="48.273" height="17.067"/>
	</g>
</g>
<g>
	<g>
		
			<rect x="146.519" y="307.207" transform="matrix(0.7071 -0.7071 0.7071 0.7071 -173.2782 213.1497)" width="48.273" height="17.066"/>
	</g>
</g>
<g>
	<g>
		<path d="M324.267,42.667c-79.991,0-145.067,65.075-145.067,145.067S244.275,332.8,324.267,332.8s145.067-65.075,145.067-145.067
			S404.258,42.667,324.267,42.667z M324.267,315.733c-70.579,0-128-57.421-128-128s57.421-128,128-128s128,57.421,128,128
			S394.846,315.733,324.267,315.733z"/>
	</g>
</g>
<g>
	<g>
		
			<rect x="136.53" y="330.725" transform="matrix(0.7071 -0.7071 0.7071 0.7071 -216.9684 210.0459)" width="17.067" height="72.405"/>
	</g>
</g>
<g>
</g>
<g>
</g>
<g>
</g>
<g>
</g>
<g>
</g>
<g>
</g>
<g>
</g>
<g>
</g>
<g>
</g>
<g>
</g>
<g>
</g>
<g>
</g>
<g>
</g>
<g>
</g>
<g>
</g>
</svg>
